<?xml version="1.0" encoding="UTF-8" standalone="no"?>
<svg
   xmlns:dc="http://purl.org/dc/elements/1.1/"
   xmlns:cc="http://creativecommons.org/ns#"
   xmlns:rdf="http://www.w3.org/1999/02/22-rdf-syntax-ns#"
   xmlns:svg="http://www.w3.org/2000/svg"
   xmlns="http://www.w3.org/2000/svg"
   xmlns:sodipodi="http://sodipodi.sourceforge.net/DTD/sodipodi-0.dtd"
   xmlns:inkscape="http://www.inkscape.org/namespaces/inkscape"
   inkscape:version="1.0 (4035a4fb49, 2020-05-01)"
   sodipodi:docname="dandelion.svg"
   version="1.1"
   width="512"
   viewBox="0 0 64 102.75"
   height="822"
   enable-background="new 0 0 64 64"
   id="icons">
  <metadata
     id="metadata213">
    <rdf:RDF>
      <cc:Work
         rdf:about="">
        <dc:format>image/svg+xml</dc:format>
        <dc:type
           rdf:resource="http://purl.org/dc/dcmitype/StillImage" />
        <dc:title></dc:title>
      </cc:Work>
    </rdf:RDF>
  </metadata>
  <defs
     id="defs211" />
  <sodipodi:namedview
     inkscape:current-layer="g206"
     inkscape:window-maximized="1"
     inkscape:window-y="0"
     inkscape:window-x="0"
     inkscape:cy="506.72614"
     inkscape:cx="393.33983"
     inkscape:zoom="0.56761892"
     showgrid="false"
     id="namedview209"
     inkscape:window-height="1019"
     inkscape:window-width="1920"
     inkscape:pageshadow="2"
     inkscape:pageopacity="0"
     guidetolerance="10"
     gridtolerance="10"
     objecttolerance="10"
     borderopacity="1"
     bordercolor="#666666"
     pagecolor="#ffffff" />
  <g
     id="g206">
    <g
       id="g8">
      <path
         id="path6"
         fill="#e6e9ed"
         d="m 31.999,19.002 c -0.553,0 -1,-0.447 -1,-1 V 1 c 0,-0.553 0.447,-1 1,-1 0.553,0 1,0.447 1,1 v 17.002 c 0,0.553 -0.447,1 -1,1 z" />
    </g>
    <g
       id="g12">
      <path
         id="path10"
         fill="#e6e9ed"
         d="m 28.999,42.996 c -0.256,0 -0.512,-0.098 -0.707,-0.293 -0.391,-0.391 -0.391,-1.023 0,-1.414 l 2.996,-2.996 c 0.391,-0.391 1.023,-0.391 1.414,0 0.391,0.391 0.391,1.023 0,1.414 l -2.996,2.996 c -0.195,0.195 -0.451,0.293 -0.707,0.293 z" />
    </g>
    <g
       id="g16">
      <path
         id="path14"
         fill="#e6e9ed"
         d="m 34.999,43.004 c -0.256,0 -0.512,-0.098 -0.707,-0.293 l -3.004,-3.004 c -0.391,-0.391 -0.391,-1.023 0,-1.414 0.391,-0.391 1.023,-0.391 1.414,0 l 3.004,3.004 c 0.391,0.391 0.391,1.023 0,1.414 -0.195,0.195 -0.451,0.293 -0.707,0.293 z" />
    </g>
    <g
       id="g20">
      <path
         id="path18"
         fill="#e6e9ed"
         d="m 32.003,6.006 c -0.256,0 -0.512,-0.098 -0.707,-0.293 -0.391,-0.391 -0.391,-1.023 0,-1.414 l 2.996,-2.996 c 0.391,-0.391 1.023,-0.391 1.414,0 0.391,0.391 0.391,1.023 0,1.414 L 32.71,5.713 c -0.195,0.195 -0.451,0.293 -0.707,0.293 z" />
    </g>
    <g
       id="g24">
      <path
         id="path22"
         fill="#e6e9ed"
         d="m 32.003,6.006 c -0.256,0 -0.512,-0.098 -0.707,-0.293 L 28.292,2.709 c -0.391,-0.391 -0.391,-1.023 0,-1.414 0.391,-0.391 1.023,-0.391 1.414,0 l 3.004,3.004 c 0.391,0.391 0.391,1.023 0,1.414 -0.195,0.195 -0.451,0.293 -0.707,0.293 z" />
    </g>
    <g
       id="g28">
      <path
         id="path26"
         fill="#e6e9ed"
         d="m 30.469,19.307 c -0.392,0 -0.765,-0.232 -0.924,-0.617 L 23.039,2.982 C 22.828,2.471 23.07,1.886 23.58,1.675 c 0.508,-0.209 1.096,0.031 1.307,0.541 l 6.506,15.707 c 0.211,0.511 -0.031,1.096 -0.541,1.307 -0.125,0.052 -0.255,0.077 -0.383,0.077 z" />
    </g>
    <g
       id="g32">
      <path
         id="path30"
         fill="#e6e9ed"
         d="m 40.034,42.4 c -0.392,0 -0.765,-0.232 -0.924,-0.617 L 32.607,26.08 c -0.211,-0.511 0.031,-1.096 0.541,-1.307 0.509,-0.209 1.096,0.031 1.307,0.541 l 6.503,15.703 c 0.211,0.511 -0.031,1.096 -0.541,1.307 -0.125,0.052 -0.255,0.076 -0.383,0.076 z" />
    </g>
    <g
       id="g36">
      <path
         id="path34"
         fill="#e6e9ed"
         d="m 36.88,42.623 c -0.128,0 -0.258,-0.024 -0.383,-0.076 -0.51,-0.212 -0.753,-0.797 -0.541,-1.307 l 1.622,-3.914 c 0.211,-0.511 0.798,-0.752 1.307,-0.541 0.51,0.212 0.752,0.797 0.541,1.307 l -1.622,3.914 c -0.159,0.385 -0.533,0.617 -0.924,0.617 z" />
    </g>
    <g
       id="g40">
      <path
         id="path38"
         fill="#e6e9ed"
         d="m 42.427,40.334 c -0.128,0 -0.258,-0.024 -0.383,-0.076 l -3.925,-1.625 c -0.51,-0.211 -0.752,-0.796 -0.541,-1.307 0.211,-0.511 0.798,-0.752 1.307,-0.541 l 3.925,1.625 c 0.51,0.211 0.752,0.796 0.541,1.307 -0.16,0.385 -0.533,0.617 -0.924,0.617 z" />
    </g>
    <g
       id="g44">
      <path
         id="path42"
         fill="#e6e9ed"
         d="m 25.5,7.299 c -0.128,0 -0.258,-0.024 -0.383,-0.076 -0.51,-0.212 -0.752,-0.797 -0.541,-1.307 l 1.622,-3.914 c 0.212,-0.511 0.8,-0.752 1.307,-0.541 0.51,0.212 0.753,0.797 0.541,1.307 L 26.424,6.682 C 26.265,7.066 25.892,7.299 25.5,7.299 Z" />
    </g>
    <g
       id="g48">
      <path
         id="path46"
         fill="#e6e9ed"
         d="m 25.5,7.299 c -0.128,0 -0.258,-0.024 -0.383,-0.076 L 21.191,5.598 C 20.681,5.387 20.439,4.802 20.65,4.291 20.861,3.781 21.449,3.539 21.957,3.75 l 3.926,1.625 c 0.51,0.211 0.752,0.796 0.541,1.307 -0.159,0.384 -0.531,0.617 -0.924,0.617 z" />
    </g>
    <g
       id="g52">
      <path
         id="path50"
         fill="#e6e9ed"
         d="m 29.172,20.174 c -0.256,0 -0.512,-0.098 -0.707,-0.293 L 16.443,7.859 c -0.391,-0.391 -0.391,-1.023 0,-1.414 0.391,-0.391 1.023,-0.391 1.414,0 l 12.021,12.021 c 0.391,0.391 0.391,1.023 0,1.414 -0.194,0.196 -0.45,0.294 -0.706,0.294 z" />
    </g>
    <g
       id="g56">
      <path
         id="path54"
         fill="#e6e9ed"
         d="m 46.847,37.85 c -0.256,0 -0.512,-0.098 -0.707,-0.293 L 34.123,25.537 c -0.391,-0.391 -0.391,-1.023 0,-1.414 0.391,-0.391 1.023,-0.391 1.414,0 l 12.017,12.02 c 0.391,0.391 0.391,1.023 0,1.414 -0.196,0.195 -0.451,0.293 -0.707,0.293 z" />
    </g>
    <g
       id="g60">
      <path
         id="path58"
         fill="#e6e9ed"
         d="m 44.018,39.262 c -0.553,0 -1,-0.448 -1,-1 l 0.002,-4.236 c 0,-0.553 0.448,-1 1,-1 0.553,0 1,0.448 1,1 l -0.002,4.236 c 0,0.552 -0.449,1 -1,1 z" />
    </g>
    <g
       id="g64">
      <path
         id="path62"
         fill="#e6e9ed"
         d="m 44.02,35.025 c -0.552,0 -1,-0.447 -1,-1 0,-0.552 0.447,-1 1,-1 l 4.248,-0.002 c 0.552,0 1,0.447 1,1 0,0.552 -0.447,1 -1,1 z" />
    </g>
    <g
       id="g68">
      <path
         id="path66"
         fill="#e6e9ed"
         d="m 19.986,10.98 c -0.553,0 -1,-0.448 -1,-1 l 10e-4,-4.236 c 0,-0.553 0.448,-1 1,-1 0.553,0 1,0.448 1,1 L 20.986,9.98 c 0,0.553 -0.448,1 -1,1 z" />
    </g>
    <g
       id="g72">
      <path
         id="path70"
         fill="#e6e9ed"
         d="m 15.737,10.982 c -0.552,0 -1,-0.447 -1,-1 0,-0.552 0.447,-1 1,-1 L 19.986,8.98 c 0.552,0 1,0.447 1,1 0,0.552 -0.447,1 -1,1 z" />
    </g>
    <g
       id="g76">
      <path
         id="path74"
         fill="#e6e9ed"
         d="m 28.306,21.471 c -0.128,0 -0.258,-0.024 -0.383,-0.076 L 12.217,14.889 c -0.51,-0.211 -0.752,-0.796 -0.541,-1.307 0.211,-0.511 0.799,-0.752 1.307,-0.541 l 15.706,6.506 c 0.51,0.211 0.752,0.796 0.541,1.307 -0.16,0.384 -0.533,0.617 -0.924,0.617 z" />
    </g>
    <g
       id="g80">
      <path
         id="path78"
         fill="#e6e9ed"
         d="m 51.399,31.037 c -0.128,0 -0.258,-0.024 -0.383,-0.076 L 35.315,24.455 c -0.51,-0.211 -0.752,-0.797 -0.541,-1.307 0.211,-0.51 0.8,-0.75 1.307,-0.541 l 15.701,6.506 c 0.51,0.211 0.752,0.797 0.541,1.307 -0.159,0.385 -0.532,0.617 -0.924,0.617 z" />
    </g>
    <g
       id="g84">
      <path
         id="path82"
         fill="#e6e9ed"
         d="m 49.326,33.424 c -0.393,0 -0.765,-0.232 -0.924,-0.617 l -1.62,-3.914 c -0.211,-0.511 0.031,-1.096 0.541,-1.307 0.509,-0.211 1.096,0.031 1.307,0.541 l 1.62,3.914 c 0.211,0.511 -0.031,1.096 -0.541,1.307 -0.125,0.051 -0.255,0.076 -0.383,0.076 z" />
    </g>
    <g
       id="g88">
      <path
         id="path86"
         fill="#e6e9ed"
         d="m 47.706,29.51 c -0.392,0 -0.765,-0.232 -0.924,-0.617 -0.212,-0.51 0.03,-1.095 0.541,-1.307 l 3.925,-1.627 c 0.508,-0.209 1.096,0.031 1.307,0.541 0.212,0.51 -0.03,1.095 -0.541,1.307 l -3.925,1.627 c -0.125,0.051 -0.255,0.076 -0.383,0.076 z" />
    </g>
    <g
       id="g92">
      <path
         id="path90"
         fill="#e6e9ed"
         d="m 16.302,16.492 c -0.393,0 -0.765,-0.232 -0.924,-0.617 l -1.62,-3.914 c -0.211,-0.511 0.031,-1.096 0.541,-1.307 0.509,-0.209 1.096,0.031 1.307,0.541 l 1.62,3.914 c 0.211,0.511 -0.031,1.096 -0.541,1.307 -0.125,0.052 -0.255,0.076 -0.383,0.076 z" />
    </g>
    <g
       id="g96">
      <path
         id="path94"
         fill="#e6e9ed"
         d="m 12.377,18.121 c -0.392,0 -0.764,-0.231 -0.924,-0.616 -0.212,-0.511 0.03,-1.096 0.54,-1.308 l 3.925,-1.629 c 0.512,-0.211 1.095,0.029 1.308,0.54 0.212,0.511 -0.03,1.096 -0.54,1.308 l -3.925,1.629 c -0.126,0.052 -0.256,0.076 -0.384,0.076 z" />
    </g>
    <g
       id="g100">
      <path
         id="path98"
         fill="#e6e9ed"
         d="m 28.002,23 h -17 c -0.553,0 -1,-0.447 -1,-1 0,-0.553 0.447,-1 1,-1 h 17 c 0.553,0 1,0.447 1,1 0,0.553 -0.447,1 -1,1 z" />
    </g>
    <g
       id="g104">
      <path
         id="path102"
         fill="#e6e9ed"
         d="M 52.998,23 H 36.003 c -0.553,0 -1,-0.447 -1,-1 0,-0.553 0.447,-1 1,-1 h 16.995 c 0.553,0 1,0.447 1,1 0,0.553 -0.447,1 -1,1 z" />
    </g>
    <g
       id="g108">
      <path
         id="path106"
         fill="#e6e9ed"
         d="m 51.996,26 c -0.256,0 -0.512,-0.098 -0.707,-0.293 l -2.994,-2.996 c -0.391,-0.391 -0.391,-1.024 0,-1.414 0.391,-0.391 1.023,-0.391 1.414,0 l 2.994,2.996 c 0.391,0.391 0.391,1.024 0,1.414 C 52.508,25.902 52.252,26 51.996,26 Z" />
    </g>
    <g
       id="g112">
      <path
         id="path110"
         fill="#e6e9ed"
         d="m 49.002,23.004 c -0.256,0 -0.512,-0.098 -0.707,-0.293 -0.391,-0.39 -0.391,-1.023 0,-1.414 l 3.003,-3.006 c 0.391,-0.391 1.023,-0.391 1.414,0 0.391,0.39 0.391,1.023 0,1.414 l -3.003,3.006 c -0.195,0.195 -0.451,0.293 -0.707,0.293 z" />
    </g>
    <g
       id="g116">
      <path
         id="path114"
         fill="#e6e9ed"
         d="m 15.006,22.994 c -0.256,0 -0.512,-0.098 -0.707,-0.293 l -2.994,-2.996 c -0.391,-0.391 -0.391,-1.024 0,-1.414 0.391,-0.391 1.023,-0.391 1.414,0 l 2.994,2.996 c 0.391,0.391 0.391,1.024 0,1.414 -0.195,0.195 -0.451,0.293 -0.707,0.293 z" />
    </g>
    <g
       id="g120">
      <path
         id="path118"
         fill="#e6e9ed"
         d="m 12.004,26.002 c -0.256,0 -0.511,-0.098 -0.706,-0.292 -0.392,-0.391 -0.392,-1.023 -0.002,-1.414 l 3.002,-3.008 c 0.391,-0.393 1.023,-0.391 1.414,-0.002 0.392,0.391 0.392,1.023 0.002,1.414 l -3.002,3.008 c -0.195,0.196 -0.452,0.294 -0.708,0.294 z" />
    </g>
    <g
       id="g124">
      <path
         id="path122"
         fill="#e6e9ed"
         d="m 12.601,31.035 c -0.392,0 -0.765,-0.232 -0.924,-0.617 -0.211,-0.511 0.031,-1.096 0.541,-1.307 l 15.706,-6.506 c 0.509,-0.209 1.096,0.031 1.307,0.541 0.211,0.511 -0.031,1.096 -0.541,1.307 l -15.706,6.506 c -0.126,0.052 -0.255,0.076 -0.383,0.076 z" />
    </g>
    <g
       id="g128">
      <path
         id="path126"
         fill="#e6e9ed"
         d="m 35.698,21.467 c -0.392,0 -0.765,-0.232 -0.924,-0.617 -0.211,-0.511 0.031,-1.096 0.541,-1.307 l 15.702,-6.502 c 0.508,-0.21 1.096,0.03 1.307,0.541 0.211,0.511 -0.031,1.096 -0.541,1.307 l -15.702,6.502 c -0.125,0.051 -0.255,0.076 -0.383,0.076 z" />
    </g>
    <g
       id="g132">
      <path
         id="path130"
         fill="#e6e9ed"
         d="m 51.623,18.119 c -0.128,0 -0.258,-0.024 -0.383,-0.076 L 47.326,16.42 c -0.511,-0.212 -0.753,-0.797 -0.541,-1.307 0.213,-0.511 0.8,-0.752 1.307,-0.541 l 3.914,1.623 c 0.511,0.212 0.753,0.797 0.541,1.307 -0.16,0.385 -0.532,0.617 -0.924,0.617 z" />
    </g>
    <g
       id="g136">
      <path
         id="path134"
         fill="#e6e9ed"
         d="m 47.709,16.496 c -0.128,0 -0.258,-0.024 -0.383,-0.076 -0.51,-0.211 -0.752,-0.796 -0.541,-1.307 l 1.625,-3.926 c 0.211,-0.51 0.799,-0.75 1.307,-0.541 0.51,0.211 0.752,0.796 0.541,1.307 l -1.625,3.926 c -0.159,0.385 -0.531,0.617 -0.924,0.617 z" />
    </g>
    <g
       id="g140">
      <path
         id="path138"
         fill="#e6e9ed"
         d="m 16.297,29.498 c -0.128,0 -0.258,-0.024 -0.383,-0.076 l -3.912,-1.623 c -0.511,-0.212 -0.753,-0.797 -0.541,-1.307 0.213,-0.51 0.8,-0.751 1.307,-0.541 l 3.912,1.623 c 0.511,0.212 0.753,0.797 0.541,1.307 -0.16,0.385 -0.533,0.617 -0.924,0.617 z" />
    </g>
    <g
       id="g144">
      <path
         id="path142"
         fill="#e6e9ed"
         d="m 14.675,33.426 c -0.128,0 -0.257,-0.024 -0.382,-0.076 -0.511,-0.21 -0.753,-0.795 -0.542,-1.306 l 1.622,-3.928 c 0.212,-0.512 0.798,-0.753 1.306,-0.542 0.511,0.21 0.753,0.795 0.542,1.306 l -1.622,3.928 c -0.16,0.385 -0.532,0.618 -0.924,0.618 z" />
    </g>
    <g
       id="g148">
      <path
         id="path146"
         fill="#e6e9ed"
         d="m 17.152,37.848 c -0.256,0 -0.512,-0.098 -0.707,-0.293 -0.391,-0.391 -0.391,-1.023 0,-1.414 L 28.466,24.12 c 0.391,-0.391 1.023,-0.391 1.414,0 0.391,0.391 0.391,1.023 0,1.414 L 17.859,37.555 c -0.195,0.195 -0.451,0.293 -0.707,0.293 z" />
    </g>
    <g
       id="g152">
      <path
         id="path150"
         fill="#e6e9ed"
         d="m 34.83,20.168 c -0.256,0 -0.512,-0.098 -0.707,-0.293 -0.391,-0.391 -0.391,-1.023 0,-1.414 L 46.142,6.445 c 0.391,-0.391 1.023,-0.391 1.414,0 0.391,0.391 0.391,1.023 0,1.414 L 35.537,19.875 c -0.195,0.195 -0.451,0.293 -0.707,0.293 z" />
    </g>
    <g
       id="g156">
      <path
         id="path154"
         fill="#e6e9ed"
         d="m 48.262,10.98 h -4.236 c -0.553,0 -1,-0.447 -1,-1 0,-0.553 0.447,-1 1,-1 h 4.236 c 0.553,0 1,0.447 1,1 0,0.553 -0.448,1 -1,1 z" />
    </g>
    <g
       id="g160">
      <path
         id="path158"
         fill="#e6e9ed"
         d="m 44.025,10.98 c -0.552,0 -1,-0.447 -1,-1 L 43.023,5.73 c 0,-0.552 0.447,-1 1,-1 0.552,0 1,0.447 1,1 l 0.002,4.25 c 0,0.552 -0.447,1 -1,1 z" />
    </g>
    <g
       id="g164">
      <path
         id="path162"
         fill="#e6e9ed"
         d="M 19.979,35.012 15.744,35.01 c -0.553,0 -1,-0.448 -1,-1 0,-0.553 0.448,-1 1,-1 l 4.235,0.002 c 0.553,0 1,0.448 1,1 0,0.552 -0.449,1 -1,1 z" />
    </g>
    <g
       id="g168">
      <path
         id="path166"
         fill="#e6e9ed"
         d="m 19.983,39.262 c -0.552,0 -0.999,-0.447 -1,-0.999 l -0.005,-4.25 c -0.001,-0.552 0.446,-1 0.999,-1.001 h 0.001 c 0.552,0 0.999,0.447 1,0.999 l 0.005,4.25 c 0.001,0.552 -0.446,1 -1,1.001 z" />
    </g>
    <g
       id="g172">
      <path
         id="path170"
         fill="#e6e9ed"
         d="m 23.965,42.398 c -0.128,0 -0.258,-0.024 -0.383,-0.076 -0.51,-0.211 -0.752,-0.796 -0.541,-1.307 L 29.546,25.31 c 0.211,-0.511 0.8,-0.751 1.307,-0.541 0.51,0.211 0.752,0.796 0.541,1.307 l -6.505,15.705 c -0.16,0.385 -0.533,0.617 -0.924,0.617 z" />
    </g>
    <g
       id="g176">
      <path
         id="path174"
         fill="#e6e9ed"
         d="m 33.531,19.301 c -0.128,0 -0.258,-0.024 -0.383,-0.076 -0.51,-0.211 -0.752,-0.797 -0.541,-1.307 L 39.113,2.217 c 0.211,-0.51 0.8,-0.751 1.307,-0.541 0.51,0.211 0.752,0.797 0.541,1.307 l -6.506,15.701 c -0.159,0.384 -0.532,0.617 -0.924,0.617 z" />
    </g>
    <g
       id="g180">
      <path
         id="path178"
         fill="#e6e9ed"
         d="M 38.511,7.293 C 38.119,7.293 37.746,7.061 37.587,6.676 37.376,6.165 37.618,5.58 38.128,5.369 L 42.042,3.748 C 42.551,3.539 43.137,3.779 43.349,4.289 43.56,4.8 43.318,5.385 42.808,5.596 L 38.894,7.217 C 38.769,7.269 38.639,7.293 38.511,7.293 Z" />
    </g>
    <g
       id="g184">
      <path
         id="path182"
         fill="#e6e9ed"
         d="m 38.511,7.293 c -0.392,0 -0.764,-0.231 -0.924,-0.617 L 35.958,2.75 c -0.212,-0.51 0.03,-1.095 0.541,-1.307 0.508,-0.211 1.095,0.029 1.307,0.541 l 1.629,3.926 c 0.212,0.51 -0.03,1.095 -0.541,1.307 -0.125,0.052 -0.255,0.076 -0.383,0.076 z" />
    </g>
    <g
       id="g188">
      <path
         id="path186"
         fill="#e6e9ed"
         d="m 21.577,40.316 c -0.393,0 -0.765,-0.232 -0.924,-0.617 -0.211,-0.511 0.031,-1.096 0.541,-1.307 l 3.913,-1.619 c 0.514,-0.21 1.096,0.031 1.307,0.541 0.211,0.511 -0.031,1.096 -0.541,1.307 L 21.96,40.24 c -0.126,0.052 -0.255,0.076 -0.383,0.076 z" />
    </g>
    <g
       id="g192">
      <path
         id="path190"
         fill="#e6e9ed"
         d="m 27.121,42.621 c -0.392,0 -0.764,-0.231 -0.924,-0.616 l -1.631,-3.924 c -0.212,-0.51 0.03,-1.096 0.54,-1.308 0.508,-0.211 1.096,0.029 1.308,0.54 l 1.631,3.924 c 0.212,0.51 -0.03,1.096 -0.54,1.308 -0.125,0.052 -0.256,0.076 -0.384,0.076 z" />
    </g>
    <g
       transform="matrix(1,0,0,1.9816515,0,-24.543251)"
       id="g196">
      <path
         id="path194"
         fill="#a0d468"
         d="m 31.999,64 c -0.553,0 -1,-0.447 -1,-1 V 26.002 c 0,-0.553 0.447,-1 1,-1 0.553,0 1,0.447 1,1 V 63 c 0,0.553 -0.447,1 -1,1 z" />
    </g>
    <g
       id="g200">
      <circle
         id="circle198"
         r="4"
         fill="#ccd1d9"
         cy="22.004"
         cx="32" />
    </g>
    <g
       id="g204">
      <path
         id="path202"
         fill="#ccd1d9"
         d="m 31.999,27.002 c -2.757,0 -5,-2.243 -5,-5 0,-2.757 2.243,-5 5,-5 2.757,0 5,2.243 5,5 0,2.757 -2.243,5 -5,5 z m 0,-8 c -1.654,0 -3,1.346 -3,3 0,1.654 1.346,3 3,3 1.654,0 3,-1.346 3,-3 0,-1.654 -1.346,-3 -3,-3 z" />
    </g>
  </g>
</svg>
